HIERARCHY
ROOT Hips
{
	OFFSET 0.000000 0.000000 0.000000
	CHANNELS 6 Xposition Yposition Zposition Zrotation Yrotation Xrotation 
	JOINT LHipJoint
	{
		OFFSET 0.000000 0.000000 0.000000
		CHANNELS 3 Zrotation Yrotation Xrotation
		JOINT LeftUpLeg
		{
			OFFSET 1.363060 -1.794630 0.839290
			CHANNELS 3 Zrotation Yrotation Xrotation
			JOINT LeftLeg
			{
				OFFSET 2.448110 -6.726130 0.000000
				CHANNELS 3 Zrotation Yrotation Xrotation
				JOINT LeftFoot
				{
					OFFSET 2.562200 -7.039590 0.000000
					CHANNELS 3 Zrotation Yrotation Xrotation
					JOINT LeftToeBase
					{
						OFFSET 0.157640 -0.433110 2.322550
						CHANNELS 3 Zrotation Yrotation Xrotation
						End Site
						{
							OFFSET 0.000000 0.000000 0.000000
						}
					}
				}
			}
		}
	}
	JOINT RHipJoint
	{
		OFFSET 0.000000 0.000000 0.000000
		CHANNELS 3 Zrotation Yrotation Xrotation
		JOINT RightUpLeg
		{
			OFFSET -1.305520 -1.794630 0.839290
			CHANNELS 3 Zrotation Yrotation Xrotation
			JOINT RightLeg
			{
				OFFSET -2.542530 -6.985550 0.000000
				CHANNELS 3 Zrotation Yrotation Xrotation
				JOINT RightFoot
				{
					OFFSET -2.568260 -7.056230 0.000000
					CHANNELS 3 Zrotation Yrotation Xrotation
					JOINT RightToeBase
					{
						OFFSET -0.164730 -0.452590 2.363150
						CHANNELS 3 Zrotation Yrotation Xrotation
						End Site
						{
							OFFSET 0.000000 0.000000 0.000000
						}
					}
				}
			}
		}
	}
}
MOTION
Frames: 19
Frame Time: 0.008333
5.150036 16.162827 1.425052 9.999168 -82.725322 8.777142 -12.620965 4.099843 1.897260 -3.010248 -0.535035 -20.826903 2.777954 3.872145 82.443992 3.347415 21.292769 7.543614 4.951600 0.000000 -36.413700 9.344847 -2.274976 2.652097 10.873176 2.194352 -22.832784 1.561619 -1.769354 42.130525 -3.753724 -10.705153 -29.194145 4.421400 0.000000 -41.877000
4.869574 16.271798 1.411877 13.155605 -82.215710 5.508142 -12.464990 3.952314 2.028311 -4.159814 -1.370766 -21.984063 2.669730 3.821231 81.496898 3.282417 21.098254 5.327235 4.237400 0.000000 -35.463900 9.451182 -2.326080 2.492371 10.286273 1.667937 -20.305491 1.527304 -1.561895 39.469654 -3.520541 -10.429450 -26.956637 3.824400 0.000000 -44.768600
4.588422 16.387481 1.403983 15.612730 -81.804016 2.947797 -12.294184 3.808909 2.139840 -5.276705 -2.124334 -23.092868 2.519009 3.767251 80.232870 3.214507 20.829569 3.111500 3.510900 0.000001 -34.397200 9.555887 -2.386763 2.324881 9.720238 1.136830 -17.843745 1.477496 -1.374717 36.765941 -3.215889 -9.954400 -24.212448 3.089100 -0.000000 -48.482199
4.306699 16.508702 1.401207 17.546764 -81.497765 0.915055 -12.108840 3.667286 2.230426 -6.345575 -2.787529 -24.139682 2.327498 3.704891 78.633906 3.146989 20.490470 1.014498 2.817200 0.000000 -33.497400 9.660823 -2.463410 2.143900 9.170148 0.566336 -15.476658 1.415840 -1.217641 34.052754 -2.842098 -9.272401 -20.937594 2.252000 0.000000 -52.894800
4.024324 16.634044 1.402805 19.154674 -81.297303 -0.789291 -11.908619 3.527607 2.298996 -7.365819 -3.354311 -25.109898 2.099045 3.629877 76.688390 3.081320 20.084503 -0.895679 2.184900 0.000000 -32.600100 9.770808 -2.558120 1.944276 8.614028 -0.075891 -13.233885 1.344789 -1.099601 31.380786 -2.410845 -8.387576 -17.147047 1.376600 0.000000 -57.689600
3.741308 16.761729 1.407657 20.610117 -81.194250 -2.336823 -11.692605 3.390091 2.348439 -8.343159 -3.829949 -25.996197 1.840160 3.537490 74.387274 3.020285 19.631420 -2.534450 1.648000 -0.000000 -31.799100 9.891971 -2.668660 1.723983 8.025682 -0.810746 -11.153506 1.264999 -1.027297 28.818481 -1.945069 -7.319014 -12.896426 0.546400 0.000000 -62.472100
3.457578 16.889637 1.414531 22.052892 -81.172807 -3.857692 -11.460210 3.254926 2.385194 -9.284578 -4.229356 -26.801660 1.559739 3.423552 71.732899 2.966661 19.158611 -3.837689 1.230800 0.000000 -31.204800 10.029936 -2.789283 1.485654 7.383122 -1.641536 -9.280914 1.175508 -1.003476 26.450944 -1.478491 -6.101770 -8.290933 -0.146401 0.000000 -66.845401
3.172962 17.015495 1.422153 23.584458 -81.212805 -5.438473 -11.212106 3.121954 2.416759 -10.194313 -4.571896 -27.537823 1.267034 3.285556 68.742918 2.922351 18.691954 -4.793006 0.937200 -0.000001 -30.750000 10.187120 -2.911158 1.236594 6.677095 -2.545626 -7.658329 1.074305 -1.025201 24.371973 -1.051806 -4.791427 -3.493587 -0.621200 0.000000 -70.402800
2.887108 17.136948 1.429691 25.220457 -81.289473 -7.073704 -10.951691 2.990401 2.454126 -11.064519 -4.885822 -28.230958 0.970861 3.122813 65.451921 2.888802 18.253207 -5.424795 0.757600 -0.000001 -30.304000 10.359716 -3.024182 0.988299 5.923231 -3.480322 -6.320215 0.960000 -1.082244 22.665104 -0.704126 -3.472114 1.284990 -0.836300 0.000000 -72.823500
2.600400 17.251884 1.436333 26.950688 -81.392066 -8.740708 -10.684553 2.857626 2.502764 -11.880996 -5.187169 -28.902213 0.678590 2.935647 61.891582 2.867089 17.862174 -5.754080 0.683000 0.000000 -30.190000 10.538414 -3.118019 0.754104 5.151784 -4.365993 -5.284499 0.830288 -1.162681 21.408951 -0.462241 -2.257216 5.828119 -0.812400 -0.000000 -74.077599
2.312361 17.358290 1.442080 28.648925 -81.498400 -10.293964 -10.417353 2.723749 2.575609 -12.616744 -5.509978 -29.590613 0.393298 2.727408 58.121405 2.856632 17.515849 -5.892178 0.677400 -0.000000 -30.019300 10.710131 -3.185725 0.544433 4.413590 -5.151902 -4.551185 0.687828 -1.250372 20.642416 -0.334396 -1.284144 9.895768 -0.635700 -0.000000 -74.072000
2.023288 17.454671 1.446952 30.204747 -81.603611 -11.618729 -10.155649 2.588152 2.678766 -13.247949 -5.871218 -30.318806 0.115196 2.500462 54.183521 2.856263 17.204631 -5.922871 0.714200 -0.000000 -29.881800 10.862868 -3.223776 0.365505 3.752328 -5.783009 -4.105729 0.534172 -1.335910 20.395443 -0.311290 -0.692356 13.309693 -0.440201 0.000000 -73.024400
1.733201 17.539757 1.451182 31.505541 -81.703788 -12.601742 -9.902874 2.451435 2.818248 -13.753759 -6.285864 -31.101465 -0.158759 2.255829 50.113860 2.863562 16.904309 -5.940733 0.763800 0.000000 -29.777600 10.988542 -3.232636 0.217671 3.200149 -6.235428 -3.923205 0.371714 -1.414812 20.676801 -0.374490 -0.594576 15.951352 -0.364400 -0.000001 -71.237800
1.442262 17.612607 1.455213 32.449265 -81.799899 -13.147148 -9.661300 2.313718 2.998333 -14.116082 -6.759511 -31.943871 -0.432714 1.991620 45.931026 2.874602 16.581423 -6.012237 0.803900 -0.000000 -29.766900 11.082676 -3.215325 0.097611 2.777578 -6.504065 -3.975494 0.203069 -1.487310 21.482583 -0.505434 -1.052933 17.770947 -0.509300 0.000000 -69.059701
1.150736 17.672484 1.459464 32.975230 -81.894374 -13.208090 -9.432041 2.175005 3.220910 -14.324624 -7.287882 -32.835746 -0.711093 1.702852 41.635569 2.883561 16.196817 -6.174089 0.820500 0.000000 -29.903901 11.145302 -3.175615 -0.001884 2.486977 -6.605339 -4.229131 0.031503 -1.556482 22.795901 -0.689388 -2.055991 18.781462 -0.907700 -0.000000 -66.805200
0.858850 17.718806 1.464598 33.033654 -81.992859 -12.759232 -9.217290 2.034230 3.483593 -14.370102 -7.855988 -33.742496 -0.996961 1.381739 37.210721 2.882475 15.711811 -6.431668 0.807600 -0.000001 -30.131100 11.177949 -3.118314 -0.091748 2.321870 -6.567185 -4.628929 -0.138469 -1.626319 24.567308 -0.916484 -3.529840 19.062020 -1.525500 0.000000 -64.751799
0.566852 17.750579 1.470944 32.664537 -82.112817 -11.847378 -9.022179 1.891241 3.784130 -14.254762 -8.422884 -34.662271 -1.286660 1.020787 32.646515 2.858958 15.099404 -6.672106 0.794000 -0.000001 -30.869700 11.186842 -3.048574 -0.174935 2.263434 -6.415291 -5.180411 -0.301439 -1.703203 26.813216 -1.175440 -5.328082 18.659996 -2.265300 0.000000 -62.765700
0.275263 17.767448 1.479540 31.783101 -82.268798 -10.441871 -8.856079 1.741830 4.103687 -13.969336 -8.940448 -35.518269 -1.575274 0.615871 27.945091 2.799911 14.339288 -6.846723 0.785700 0.000000 -31.770200 11.172384 -2.974942 -0.267947 2.301936 -6.184017 -5.768637 -0.452287 -1.791349 29.404224 -1.458401 -7.317434 17.762999 -3.031700 -0.000000 -61.107600
-0.015498 17.768699 1.491104 30.350019 -82.485493 -8.537975 -8.733203 1.582854 4.418286 -13.524199 -9.328029 -36.287607 -1.849914 0.174317 23.176869 2.688949 13.422550 -6.822595 0.809600 0.000000 -32.954400 11.137455 -2.907234 -0.375812 2.423936 -5.895496 -6.341315 -0.588038 -1.896167 32.281025 -1.751813 -9.345654 16.501455 -3.726599 0.000000 -59.656700
